<svg width="1600" height="1000" viewBox="0 0 1600 1000" fill="none" xmlns="http://www.w3.org/2000/svg">
  <defs>
    <linearGradient id="sky" x1="0" y1="0" x2="1600" y2="1000" gradientUnits="userSpaceOnUse">
      <stop stop-color="#ECEBFF"/>
      <stop offset="0.55" stop-color="#E2F7F1"/>
      <stop offset="1" stop-color="#FBE8F1"/>
    </linearGradient>
    <linearGradient id="buildingA" x1="0" y1="0" x2="0" y2="1">
      <stop stop-color="#5D47C6"/>
      <stop offset="1" stop-color="#3A2F86"/>
    </linearGradient>
    <linearGradient id="buildingB" x1="0" y1="0" x2="0" y2="1">
      <stop stop-color="#1AAFA0"/>
      <stop offset="1" stop-color="#12877B"/>
    </linearGradient>
    <linearGradient id="buildingC" x1="0" y1="0" x2="0" y2="1">
      <stop stop-color="#8A6DFF"/>
      <stop offset="1" stop-color="#6753D8"/>
    </linearGradient>
  </defs>

  <rect width="1600" height="1000" fill="url(#sky)"/>
  <circle cx="1380" cy="130" r="92" fill="#FFFFFF" fill-opacity="0.6"/>
  <ellipse cx="800" cy="860" rx="800" ry="220" fill="#DCEEF0"/>

  <rect x="120" y="380" width="270" height="320" rx="16" fill="url(#buildingA)" fill-opacity="0.9"/>
  <rect x="330" y="300" width="340" height="400" rx="16" fill="url(#buildingC)" fill-opacity="0.9"/>
  <rect x="650" y="430" width="230" height="270" rx="16" fill="url(#buildingB)" fill-opacity="0.92"/>
  <rect x="850" y="260" width="300" height="440" rx="16" fill="url(#buildingA)" fill-opacity="0.88"/>
  <rect x="1130" y="360" width="320" height="340" rx="16" fill="url(#buildingB)" fill-opacity="0.88"/>

  <g fill="#EAF3FF" fill-opacity="0.72">
    <rect x="155" y="420" width="34" height="26" rx="4"/>
    <rect x="206" y="420" width="34" height="26" rx="4"/>
    <rect x="257" y="420" width="34" height="26" rx="4"/>
    <rect x="308" y="420" width="34" height="26" rx="4"/>
    <rect x="359" y="420" width="34" height="26" rx="4"/>

    <rect x="155" y="465" width="34" height="26" rx="4"/>
    <rect x="206" y="465" width="34" height="26" rx="4"/>
    <rect x="257" y="465" width="34" height="26" rx="4"/>
    <rect x="308" y="465" width="34" height="26" rx="4"/>
    <rect x="359" y="465" width="34" height="26" rx="4"/>

    <rect x="365" y="345" width="34" height="26" rx="4"/>
    <rect x="416" y="345" width="34" height="26" rx="4"/>
    <rect x="467" y="345" width="34" height="26" rx="4"/>
    <rect x="518" y="345" width="34" height="26" rx="4"/>
    <rect x="569" y="345" width="34" height="26" rx="4"/>

    <rect x="885" y="305" width="34" height="26" rx="4"/>
    <rect x="936" y="305" width="34" height="26" rx="4"/>
    <rect x="987" y="305" width="34" height="26" rx="4"/>
    <rect x="1038" y="305" width="34" height="26" rx="4"/>
    <rect x="1089" y="305" width="34" height="26" rx="4"/>
  </g>

  <path d="M0 760C180 700 280 680 460 710C620 736 760 790 910 774C1080 756 1220 680 1600 735V1000H0V760Z" fill="#D5E8F3" fill-opacity="0.65"/>
  <path d="M0 800C220 730 370 740 560 784C760 830 920 840 1080 810C1260 775 1370 740 1600 785V1000H0V800Z" fill="#C3DBEB" fill-opacity="0.72"/>
</svg>
